<?xml version="1.0" encoding="UTF-8"?>
<svg width="93px" height="90px" viewBox="0 0 93 90" version="1.1" xmlns="http://www.w3.org/2000/svg" xmlns:xlink="http://www.w3.org/1999/xlink">
    <!-- Generator: Sketch 58 (84663) - https://sketch.com -->
    <title>Artboard</title>
    <desc>Created with Sketch.</desc>
    <defs>
        <polygon id="path-1" points="0.7400475 0.274285714 30.8906475 0.274285714 30.8906475 4.75385714 0.7400475 4.75385714"></polygon>
        <polygon id="path-3" points="0.733162362 0.0439826087 43.8735 0.0439826087 43.8735 36 0.733162362 36"></polygon>
        <polygon id="path-5" points="0 0.106983317 40.9647245 0.106983317 40.9647245 52.2638456 0 52.2638456"></polygon>
    </defs>
    <g id="Artboard" stroke="none" stroke-width="1" fill="none" fill-rule="evenodd">
        <g id="Group-50">
            <g id="Group-3" transform="translate(41.000000, 0.000000)">
                <mask id="mask-2" fill="white">
                    <use xlink:href="#path-1"></use>
                </mask>
                <g id="Clip-2"></g>
                <path d="M30.8906475,4.75385714 C22.4059475,0.066 11.4916225,-0.849 0.7400475,1.571 C4.1709725,1.72385714 7.6824975,2.28171429 11.2234725,3.28242857 C18.4309725,2.20242857 25.1114725,2.81671429 30.8906475,4.75385714" id="Fill-1" fill="#FFCE00" mask="url(#mask-2)"></path>
            </g>
            <g id="Group-6" transform="translate(1.000000, 54.000000)">
                <mask id="mask-4" fill="white">
                    <use xlink:href="#path-3"></use>
                </mask>
                <g id="Clip-5"></g>
                <path d="M34.1942857,31.3686783 C23.7128571,31.2207652 14.1491429,26.9187652 7.92785714,17.7763304 C4.23421429,12.3489391 1.90457143,6.40267826 0.935,0.307721739 C0.902785714,0.218504348 0.8745,0.130852174 0.843857143,0.0439826087 C-0.723642857,22.7607652 14.4618571,40.4078087 39.6887857,35.0265913 C41.0905,34.7268522 42.4859286,34.3770261 43.8735,33.9912 C40.8736429,33.5247652 37.7967857,32.727287 34.6712143,31.557287 C34.5093571,31.4962435 34.3522143,31.431287 34.1942857,31.3686783" id="Fill-4" fill="#4EB700" mask="url(#mask-4)"></path>
            </g>
            <path d="M72,5 C75.6692121,7.22603278 78.8927048,10.209546 81.4456737,14.0166127 C87.0315571,22.3496838 89.0174589,31.7949847 87.7814237,41.1199383 C88.6254124,45.6396501 88.7545388,50.3064531 88.0995724,55 C90.6159814,50.0673316 92.2673991,44.8373344 92.8072408,39.4539534 C94.4205429,23.3588711 85.7698522,10.0679609 72,5" id="Fill-7" fill="#FFCE00"></path>
            <path d="M45,87.5087329 C65.743608,90.7539462 82.8125263,77.5920976 87.3218013,57.7564456 C87.6094267,56.5053555 87.8263245,55.2510901 88,54 C80.0140724,69.6560904 63.3121516,82.3352849 45,87.5087329" id="Fill-9" fill="#0071BC"></path>
            <g id="Group-13" transform="translate(0.000000, 1.000000)">
                <mask id="mask-6" fill="white">
                    <use xlink:href="#path-5"></use>
                </mask>
                <g id="Clip-12"></g>
                <path d="M19.7623094,10.7219779 C26.1699132,5.55447794 33.5274792,1.98711029 40.9647245,0.155492647 C21.7210264,-0.788375 5.12453585,12.1397279 0.964196226,30.3717279 C-0.746973585,37.8829191 -0.122690566,45.3333162 2.37753585,52.2638456 C2.38217736,52.1835662 2.38681887,52.1017279 2.3953283,52.0214485 C0.265649057,37.3365515 5.98630943,21.8387279 19.7623094,10.7219779" id="Fill-11" fill="#990564" mask="url(#mask-6)"></path>
            </g>
            <path d="M87.2604447,41 C85.697973,52.6651965 79.0307993,64.1442963 67.9585848,73.0180433 C57.7970277,81.1607525 45.9012211,85.5281342 35,85.3703054 C35.157659,85.4315524 35.3145337,85.4975107 35.4761146,85.5595429 C38.5963519,86.7326584 41.667958,87.5335806 44.6626956,88 C62.9401639,82.8827352 79.6104512,70.3412356 87.5812534,54.8559543 C88.2416958,50.1705593 88.1107054,45.5118618 87.2604447,41" id="Fill-14" fill="#0094D1"></path>
            <path d="M3,54 C3.96201276,60.0829953 6.27349398,66.0183678 9.9383416,71.4343269 C16.1111269,80.5596009 25.6002835,84.8523772 36,85 C20.048051,78.8740457 7.9714387,67.42508 3,54" id="Fill-16" fill="#9FCC4F"></path>
            <path d="M52,3.57821558 C52.8922068,3.85354208 53.7820719,4.15304738 54.6774011,4.48843093 C72.7767884,11.2709782 84.6658542,25.219814 87.6461216,41 C88.8856881,31.7543335 86.8928586,22.386993 81.2874892,14.1248583 C78.7256145,10.3498434 75.4900963,7.39144854 71.808865,5.18415681 C65.9888351,3.06890056 59.2594256,2.39813347 52,3.57821558" id="Fill-18" fill="#FFE27A"></path>
            <path d="M2.43738966,53 C2.46788444,52.5616134 2.50385263,52.1208824 2.55154959,51.6809329 C4.92388669,28.2393604 23.9995413,8.80812695 49.6808333,3.30914883 C50.4596229,3.14270257 51.233721,2.99891801 52,2.87310652 C48.4274198,1.77674922 44.8845525,1.16644626 41.4222227,1 C33.9040878,2.8355975 26.4680542,6.41223852 19.9914332,11.5931714 C6.06861363,22.738038 0.284771318,38.2769296 2.43738966,53" id="Fill-20" fill="#9F558A"></path>
            <path d="M42.0129347,39 C43.8521287,39 45.9268768,38.4258712 47.0976276,37.7509352 L46.359766,34.1384131 C45.7919402,34.4770624 45.1234969,34.7471943 44.4566136,34.7471943 C43.5526162,34.7471943 42.8163146,34.5447923 42.7827754,33.3626698 C42.7827754,33.0925379 42.8163146,32.6538689 42.8498538,32.3160071 L44.0525837,25.5989368 L48.2660383,25.5989368 L49,21.1783816 L44.8232044,21.1783816 L45.9268768,15 L40.3086773,15 L37.3010725,32.3490845 C37.1325967,33.2626501 37,34.0722583 37,34.8826541 C37.0327592,37.0421343 38.0022749,39 42.0129347,39" id="Fill-22" fill="#FFFFFF"></path>
            <path d="M54.7855437,39 C56.3234754,39 57.9644563,38.5208 59.4695996,36.8392 L59.6694526,36.8752 L59.6694526,38.5544 L64.3558505,38.5544 L64.5900533,35.228 L67,21 L61.4095794,21 L59.5039493,32.2792 C59.2681852,33.6848 58.2314475,34.68 57.0604335,34.68 C55.9893461,34.68 55.7223549,34.132 55.7223549,33.344 C55.7223549,32.9648 55.787151,32.5216 55.8558505,32.04 L57.7630419,21 L52.1765246,21 L50.1678453,32.7256 C50.0671381,33.344 50,34.0288 50,34.5432 C50,37.5272 51.5730621,39 54.7855437,39" id="Fill-24" fill="#FFFFFF"></path>
            <path d="M62.4424486,16.5274027 C63.6093734,15.6084194 64,15.0643368 64,14.3828435 C64,12.9864972 62.3004026,12.3057983 61.2383607,12 L56,18.6386021 L57.3808197,20 C58.725302,19.1485306 60.9204088,17.7529786 62.4424486,16.5274027" id="Fill-26" fill="#FFFFFF"></path>
            <path d="M18.1935552,54.0121123 C18.002097,54.8138706 17.5115336,55.1819292 16.763386,55.1819292 C15.8037886,55.1819292 15.524675,54.3364103 15.524675,53.3814896 C15.524675,51.231746 16.3358731,48.6490842 18.5587865,48.6490842 C18.7279463,48.6490842 18.9201734,48.6490842 19.1124004,48.6912821 L18.1935552,54.0121123 Z M12,53.4455678 C12,56.2462515 13.3048371,57.7872527 15.482385,57.7872527 C16.4212219,57.7872527 17.1263106,57.4832723 17.5745841,57.0948962 L17.6376346,57.0948962 L16.7833776,62 L20.3511114,62 L23,46.8689621 C21.6544107,46.3055433 19.9889557,46 18.6856564,46 C14.7342374,46 12,48.8225641 12,53.4455678 L12,53.4455678 Z" id="Fill-28" fill="#FFFFFF"></path>
            <path d="M30.1493056,53.8928204 C29.9996457,54.7527258 29.3269558,55.360694 28.5700822,55.360694 C27.8755669,55.360694 27.7025227,55.0242748 27.7025227,54.5422753 C27.7025227,54.3122129 27.7461735,54.0399095 27.7890448,53.7464856 L29.0237387,47 L25.4077381,47 L24.1083475,54.1651238 C24.0436508,54.5422753 24,54.9616677 24,55.276212 C24,57.098608 25.0179989,58 27.0945295,58 C28.0922619,58 29.1539116,57.7065762 30.1282596,56.6792155 L30.2576531,56.7010903 L30.2576531,57.7269423 L33.2898243,57.7269423 L33.4410431,55.6948502 L35,47 L31.3839994,47 L30.1493056,53.8928204 Z" id="Fill-30" fill="#FFFFFF"></path>
            <path d="M41,44.1484148 L41.8625358,45 C42.7027716,44.468525 44.0742275,43.595497 45.0259637,42.8304488 C45.7562918,42.2553224 46,41.915301 46,41.4887425 C46,40.6180119 44.9359669,40.1929851 44.2733355,40 L41,44.1484148 Z" id="Fill-32" fill="#FFFFFF"></path>
            <path d="M42.0857784,48.6076235 C42.472091,48.6076235 42.8398235,48.8295658 42.8398235,49.3156115 C42.8398235,50.5088499 41.0747077,51.1285383 39.8275141,51.1929732 C40.107765,49.9997348 40.8145854,48.6076235 42.0857784,48.6076235 M40.429047,58 C42.8398235,58 44.5375861,57.0048392 44.9672525,56.6961883 L44.2147557,54.3311899 C43.439808,54.7949619 42.4511884,55.2595293 41.419215,55.2595293 C40.107765,55.2595293 39.5898428,54.4202851 39.6122939,53.4251243 C41.9139119,53.2707988 46,52.6081538 46,48.8947962 C46,46.9959562 44.7086785,46 42.6006039,46 C38.4301308,46 36,49.6910839 36,53.4473981 C36,56.0542261 37.2905473,58 40.429047,58" id="Fill-34" fill="#FFFFFF"></path>
            <path d="M28.3710452,71.6304648 C28.0944915,71.6304648 27.7752119,71.5690352 27.4396186,71.4477715 L28.4300847,65.6654079 C28.6677966,65.5640889 29.0841808,65.5034571 29.5013418,65.5034571 C30.4125706,65.5034571 30.6883475,66.2166791 30.6883475,67.3144346 C30.6883475,69.0049463 30.2144774,71.6304648 28.3710452,71.6304648 M29.9961864,63 C28.9653249,63 27.1428672,63.202638 25.4384887,63.7722583 L23,78 L26.309322,78 L27.0426554,73.7270503 C27.4,73.8905967 27.9942797,74.0525476 28.628178,74.0525476 C31.8178672,74.0525476 34,71.4278268 34,67.2338581 C34,64.4862781 32.6700565,63 29.9961864,63" id="Fill-36" fill="#FFFFFF"></path>
            <path d="M38.3225983,70.4199559 C37.8382897,70.4199559 37.6088804,70.2432194 37.5866795,69.7701213 C37.5866795,69.5933848 37.6088804,69.3572216 37.6508154,69.1202867 L39.5584487,59 L36.0556393,59 L34.1471838,69.1202867 C34.0624914,69.6126792 34,70.0865491 34,70.5179713 C34.0213786,72.0360529 34.6726052,73 36.8951624,73 C37.8382897,73 39.1826778,72.7445424 40,72.2915105 L39.6225846,70.1050717 C39.0988077,70.3034179 38.6367,70.4199559 38.3225983,70.4199559" id="Fill-38" fill="#FFFFFF"></path>
            <path d="M46.7085236,70.4287987 C46.5144597,71.1400159 46.0479452,71.5855211 45.3873668,71.5855211 C44.45586,71.5855211 44.2427702,70.7939539 44.2427702,69.8210024 C44.2427702,68.1567224 44.8850837,65.3754972 46.651446,65.3754972 C47,65.3754972 47.3105023,65.4367542 47.5251142,65.5385839 L46.7085236,70.4287987 Z M41,70.2076372 C41,72.3977725 41.9330289,74 44.0106545,74 C45.174277,74 46.0479452,73.5560859 46.7290715,72.7231504 L46.826484,72.7422434 L46.826484,73.6968974 L49.5624049,73.6968974 L49.6986301,71.5059666 L51,63.8130469 C49.54414,63.2020684 48.0882801,63 47.2716895,63 C43.2146119,63 41,66.0445505 41,70.2076372 L41,70.2076372 Z" id="Fill-40" fill="#FFFFFF"></path>
            <path d="M59.3741643,63 C58.0600938,63 57.0403443,63.5636621 56.2741874,64.4611037 L56.2357642,63.3133274 L53.5307769,63.3133274 L53.4139706,65.4640785 L52,74 L55.2544379,74 L56.373319,67.2164212 C56.5093368,66.3402499 57.0019212,65.6726908 57.8441558,65.6726908 C58.431261,65.6726908 58.5895643,66.1308196 58.5895643,66.5488621 C58.5895643,66.9456344 58.4912011,67.4242154 58.431261,67.758813 L57.41228,74 L60.6859295,74 L61.9008684,66.735386 C61.9592715,66.3402499 62,65.9213893 62,65.5876097 C61.9807884,63.7935445 61.0002305,63 59.3741643,63" id="Fill-42" fill="#FFFFFF"></path>
            <path d="M66.4446131,67.7614785 C66.6965099,66.6671961 67.3353566,65.3910627 68.4802731,65.3910627 C68.8270106,65.3910627 69.15478,65.5943546 69.15478,66.0390557 C69.15478,67.1333381 67.5675266,67.7003321 66.4446131,67.7614785 M72,65.6547069 C72,63.9116373 70.8391502,63 68.9423369,63 C65.1858877,63 63,66.3836991 63,69.8277505 C63,72.2180191 64.1608498,74 66.9863429,74 C69.15478,74 70.6836115,73.090745 71.0735964,72.8056598 L70.3937785,70.6393301 C69.6965099,71.0641785 68.8072838,71.489821 67.8786039,71.489821 C66.6965099,71.489821 66.23217,70.7203292 66.2511381,69.8086919 C68.3247344,69.664164 72,69.0582587 72,65.6547069" id="Fill-44" fill="#FFFFFF"></path>
            <path d="M78.0715477,67.5792969 C76.9210307,67.0925431 76.2913609,66.8892659 76.2913609,66.1817657 C76.2913609,65.7561539 76.6350901,65.4107414 77.2857738,65.4107414 C77.9169446,65.4107414 78.64493,65.7760052 79.3721648,66.4438028 L81,64.6818018 C80.2352402,63.7487909 78.778519,63 77.2467478,63 C74.8924283,63 73.073966,64.2546019 73.073966,66.6264347 C73.073966,68.5710676 74.335557,69.1801054 75.350984,69.5826897 C76.1179953,69.8883996 76.9615577,70.1512308 76.9615577,70.7189778 C76.9615577,71.2660795 76.558539,71.5289107 75.9266177,71.5289107 C75.0252668,71.5289107 73.8387258,70.9603696 73.189543,70.4958493 L72,72.7843066 C72.5358572,73.2527972 73.9918279,74 75.8305537,74 C78.4340394,74 80.1954636,72.7239587 80.1954636,70.3926225 C80.1954636,68.6711182 79.0854736,68.0041146 78.0715477,67.5792969" id="Fill-46" fill="#FFFFFF"></path>
            <path d="M21.989968,39.4319331 C18.819012,38.3486308 24.0942392,33.8247106 25.8822572,32.3904684 C25.7888361,33.0618657 25.6846946,33.8012625 25.5667696,34.6125667 C24.780348,40.029078 21.989968,39.4319331 21.989968,39.4319331 L21.989968,39.4319331 Z M27.2736184,22.8072296 C27.2736184,22.8072296 26.9872293,25.6546107 24.4840042,25.4357617 C24.4840042,25.4357617 22.7687322,25.5819216 23.554388,22.0772121 L25.4143861,12 L19.4055738,12 L17.6167901,22.5875991 C17.6167901,22.5875991 15.8287722,28.5019917 21.4087665,28.7943114 C21.4087665,28.7943114 23.3139436,28.7919665 26.4519725,27.9642486 C26.4106222,28.3175333 26.3455338,28.8685637 26.2505812,29.6212477 C16.7798293,32.8672465 16.0523702,38.5198019 16.0523702,38.5198019 C15.4083774,44.033232 20.9163915,43.9589797 20.9163915,43.9589797 C29.9299928,44.7616864 31.3604072,33.5175404 31.3604072,33.5175404 L32.2264664,28.1088452 L35,12 L29.2055967,12 L27.2736184,22.8072296 Z" id="Fill-48" fill="#FFFFFF"></path>
        </g>
    </g>
</svg>