<?xml version="1.0" encoding="UTF-8"?>
<svg width="100px" height="100px" viewBox="0 0 100 100" version="1.1" xmlns="http://www.w3.org/2000/svg" xmlns:xlink="http://www.w3.org/1999/xlink">
    <!-- Generator: Sketch 58 (84663) - https://sketch.com -->
    <title>Group 88</title>
    <desc>Created with Sketch.</desc>
    <defs>
        <polygon id="path-1" points="0 0.668 99.3318 0.668 99.3318 99.9998 0 99.9998"></polygon>
        <polygon id="path-3" points="0 100.3318 99.332 100.3318 99.332 0.9998 0 0.9998"></polygon>
    </defs>
    <g id="Interfaz" stroke="none" stroke-width="1" fill="none" fill-rule="evenodd">
        <g id="Desktop_Dia-del-turismo_1" transform="translate(-1091.000000, -3329.000000)">
            <g id="Group-88" transform="translate(1091.000000, 3328.000000)">
                <path d="M8.8435,50.1472 L8.8265,50.1462 C8.1315,50.1162 7.5975,49.5232 7.6275,48.8292 C7.6575,48.1332 8.2415,47.5902 8.9375,47.6212 L8.9535,47.6212 C9.6485,47.6522 10.1835,48.2442 10.1535,48.9382 C10.1225,49.6332 9.5385,50.1772 8.8435,50.1472" id="Fill-1" fill="#A7A7A7"></path>
                <path d="M10.8201,40.6277 L7.8001,41.7807 C7.6531,41.8377 7.4881,41.8617 7.3081,41.8137 C6.9731,41.7207 6.7801,41.3677 6.8781,41.0167 C6.9571,40.7307 7.1621,40.5937 7.4331,40.5017 L9.8201,39.6647 L8.1911,37.6927 C8.0051,37.4747 7.9101,37.2457 7.9821,36.9837 C8.0891,36.6007 8.4211,36.4457 8.7641,36.5407 C8.9361,36.5877 9.0691,36.7127 9.1611,36.8257 L11.1431,39.3617 L12.7951,39.8177 C13.1461,39.9147 13.3471,40.2697 13.2501,40.6207 C13.1531,40.9727 12.7991,41.1737 12.4471,41.0767 L10.8201,40.6277 Z" id="Fill-3" fill="#A7A7A7"></path>
                <path d="M13.1091,32.5115 L13.0931,32.5045 C12.1631,32.0925 11.0851,32.4315 10.6591,33.3935 C10.2331,34.3555 10.6981,35.3595 11.6291,35.7715 L11.6441,35.7785 C12.5751,36.1905 13.6531,35.8505 14.0791,34.8885 C14.5041,33.9265 14.0401,32.9235 13.1091,32.5115 M11.1071,37.0325 L11.0911,37.0265 C9.5471,36.3435 8.8231,34.5655 9.5641,32.8905 C10.3061,31.2155 12.0871,30.5665 13.6301,31.2485 L13.6461,31.2555 C15.1891,31.9395 15.9151,33.7165 15.1721,35.3925 C14.4311,37.0675 12.6501,37.7165 11.1071,37.0325" id="Fill-5" fill="#A7A7A7"></path>
                <path d="M17.1589,30.0115 C16.9919,30.0705 16.7819,30.0445 16.6159,29.9265 C16.3399,29.7295 16.2829,29.3555 16.4799,29.0795 C16.5789,28.9415 16.6959,28.8795 16.7939,28.8445 C17.3239,28.6705 17.7749,28.3895 18.1109,27.9195 C18.4209,27.4855 18.4349,27.0995 18.1519,26.8975 L18.1379,26.8875 C17.8699,26.6955 17.6129,26.7625 16.8299,27.4225 C15.8869,28.2185 15.1699,28.6545 14.2109,27.9695 L14.1959,27.9595 C13.3199,27.3335 13.2429,26.2155 13.9469,25.2295 C14.3659,24.6425 14.8829,24.2405 15.4689,24.0025 C15.6219,23.9345 15.8499,23.9205 16.0569,24.0685 C16.3329,24.2655 16.3889,24.6385 16.1919,24.9145 C16.1189,25.0185 16.0319,25.0815 15.9249,25.1295 C15.4669,25.3335 15.1119,25.5815 14.8759,25.9125 C14.5859,26.3205 14.6189,26.6665 14.8529,26.8345 L14.8669,26.8445 C15.1839,27.0715 15.4359,26.9385 16.2459,26.2555 C17.2009,25.4575 17.9469,25.1575 18.7889,25.7585 L18.8029,25.7685 C19.7619,26.4525 19.7779,27.5695 19.0339,28.6115 C18.5809,29.2455 17.9299,29.7495 17.1589,30.0115" id="Fill-7" fill="#A7A7A7"></path>
                <path d="M21.6648,20.949 L21.6518,20.937 C20.9228,20.229 19.7938,20.174 19.0608,20.928 C18.3288,21.684 18.4178,22.786 19.1478,23.495 L19.1608,23.507 C19.8908,24.216 21.0188,24.27 21.7518,23.515 C22.4838,22.761 22.3948,21.658 21.6648,20.949 M18.2218,24.499 L18.2098,24.487 C16.9978,23.311 16.9328,21.393 18.2078,20.078 C19.4838,18.763 21.3798,18.77 22.5908,19.945 L22.6028,19.957 C23.8148,21.133 23.8808,23.051 22.6038,24.366 C21.3288,25.681 19.4338,25.674 18.2218,24.499" id="Fill-9" fill="#A7A7A7"></path>
                <path d="M24.8074,19.1531 L21.7034,18.2471 C21.5534,18.2021 21.4064,18.1221 21.2934,17.9731 C21.0824,17.6981 21.1424,17.2991 21.4314,17.0791 C21.6674,16.8981 21.9134,16.9141 22.1854,17.0051 L24.5924,17.7811 L24.4874,15.2261 C24.4714,14.9391 24.5344,14.7001 24.7494,14.5351 C25.0654,14.2931 25.4244,14.3721 25.6404,14.6551 C25.7484,14.7971 25.7794,14.9751 25.7844,15.1221 L25.8294,18.3401 L26.8694,19.7021 C27.0904,19.9911 27.0364,20.3951 26.7464,20.6171 C26.4564,20.8391 26.0524,20.7841 25.8314,20.4941 L24.8074,19.1531 Z" id="Fill-11" fill="#A7A7A7"></path>
                <path d="M30.0271,12.8894 L28.9041,13.4504 C28.6081,13.5974 28.2441,13.4764 28.0961,13.1804 C27.9481,12.8834 28.0701,12.5204 28.3661,12.3724 L31.7811,10.6674 C32.0771,10.5194 32.4411,10.6414 32.5891,10.9374 C32.7371,11.2334 32.6151,11.5974 32.3191,11.7444 L31.1961,12.3054 L33.0411,16.0014 C33.2041,16.3274 33.0741,16.7144 32.7491,16.8774 C32.4221,17.0404 32.0351,16.9114 31.8721,16.5854 L30.0271,12.8894 Z" id="Fill-13" fill="#A7A7A7"></path>
                <path d="M34.3816,13.1755 L33.5196,10.5235 C33.4066,10.1765 33.5926,9.8135 33.9396,9.6995 C34.2856,9.5875 34.6496,9.7725 34.7616,10.1185 L35.6126,12.7395 C35.9116,13.6595 36.5266,13.9865 37.2836,13.7395 C38.0416,13.4935 38.3526,12.8845 38.0616,11.9895 L37.1966,9.3275 C37.0846,8.9815 37.2696,8.6175 37.6156,8.5055 C37.9636,8.3925 38.3266,8.5775 38.4396,8.9245 L39.2876,11.5375 C39.8436,13.2465 39.1556,14.3985 37.6406,14.8905 C36.1236,15.3825 34.9206,14.8365 34.3816,13.1755" id="Fill-15" fill="#A7A7A7"></path>
                <path d="M42.8406,10.3425 C43.4676,10.2315 43.7666,9.8325 43.6796,9.3405 L43.6766,9.3235 C43.5776,8.7735 43.1436,8.5575 42.5176,8.6675 L41.2396,8.8955 L41.5376,10.5735 L42.8406,10.3425 Z M39.8616,8.6065 C39.7976,8.2465 40.0306,7.9125 40.3906,7.8485 L42.4196,7.4885 C43.1626,7.3565 43.7766,7.4625 44.2286,7.7785 C44.6116,8.0465 44.8686,8.4745 44.9676,9.0255 L44.9696,9.0425 C45.1336,9.9605 44.7756,10.6105 44.1166,11.0295 L45.2026,11.9555 C45.3576,12.0915 45.4636,12.2105 45.4996,12.4105 C45.5636,12.7705 45.3046,13.0575 44.9946,13.1125 C44.7026,13.1645 44.4866,13.0565 44.3016,12.8915 L42.7666,11.5275 L41.7396,11.7095 L41.9666,12.9875 C42.0296,13.3455 41.7976,13.6805 41.4386,13.7435 C41.0786,13.8075 40.7436,13.5745 40.6806,13.2155 L39.8616,8.6065 Z" id="Fill-17" fill="#A7A7A7"></path>
                <path d="M45.9529,7.6394 C45.9269,7.2744 46.1939,6.9664 46.5569,6.9404 C46.9219,6.9134 47.2289,7.1814 47.2559,7.5444 L47.5959,12.2664 C47.6219,12.6294 47.3549,12.9384 46.9909,12.9644 C46.6269,12.9914 46.3179,12.7234 46.2929,12.3604 L45.9529,7.6394 Z" id="Fill-19" fill="#A7A7A7"></path>
                <path d="M48.4538,12.1511 C48.3118,12.0461 48.2148,11.8561 48.2198,11.6531 C48.2268,11.3131 48.5048,11.0571 48.8448,11.0651 C49.0138,11.0691 49.1308,11.1311 49.2148,11.1931 C49.6558,11.5341 50.1428,11.7501 50.7198,11.7631 C51.2548,11.7761 51.5808,11.5711 51.5898,11.2231 L51.5898,11.2071 C51.5978,10.8761 51.3978,10.7011 50.4118,10.4231 C49.2238,10.0891 48.4598,9.7411 48.4878,8.5621 L48.4878,8.5461 C48.5138,7.4681 49.3948,6.7771 50.6078,6.8051 C51.3288,6.8221 51.9518,7.0231 52.4768,7.3761 C52.6198,7.4641 52.7608,7.6451 52.7538,7.8991 C52.7458,8.2391 52.4688,8.4961 52.1298,8.4871 C52.0028,8.4841 51.9008,8.4481 51.8008,8.3851 C51.3748,8.1221 50.9708,7.9681 50.5628,7.9591 C50.0628,7.9461 49.7948,8.1691 49.7888,8.4571 L49.7878,8.4741 C49.7788,8.8641 50.0298,8.9981 51.0498,9.2851 C52.2468,9.6281 52.9148,10.0761 52.8908,11.1101 L52.8908,11.1271 C52.8618,12.3051 51.9468,12.9461 50.6668,12.9161 C49.8878,12.8971 49.1038,12.6411 48.4538,12.1511" id="Fill-21" fill="#A7A7A7"></path>
                <path d="M54.2966,7.6482 C54.3606,7.2892 54.6946,7.0562 55.0546,7.1202 L55.1956,7.1452 C55.4716,7.1952 55.6386,7.3712 55.7206,7.5842 L56.8216,10.3902 L58.8356,8.1312 C59.0086,7.9382 59.2116,7.8632 59.4706,7.9092 L59.6116,7.9342 C59.9716,7.9992 60.2036,8.3342 60.1406,8.6922 L59.3116,13.3342 C59.2466,13.6922 58.9126,13.9252 58.5536,13.8612 C58.2026,13.7982 57.9716,13.4562 58.0336,13.1052 L58.5546,10.1922 L57.1166,11.7272 C56.9476,11.9032 56.7586,11.9992 56.5246,11.9572 C56.2906,11.9162 56.1466,11.7602 56.0486,11.5362 L55.2436,9.6262 L54.7256,12.5312 C54.6626,12.8812 54.3296,13.1072 53.9786,13.0442 C53.6286,12.9812 53.4016,12.6572 53.4646,12.3062 L54.2966,7.6482 Z" id="Fill-23" fill="#A7A7A7"></path>
                <path d="M65.3523,12.9695 L65.3583,12.9525 C65.7073,11.9975 65.2983,10.9455 64.3113,10.5835 C63.3243,10.2215 62.3533,10.7515 62.0033,11.7065 L61.9983,11.7235 C61.6473,12.6785 62.0573,13.7315 63.0443,14.0925 C64.0323,14.4545 65.0023,13.9245 65.3523,12.9695 M60.7093,11.2695 L60.7153,11.2535 C61.2953,9.6685 63.0213,8.8285 64.7413,9.4575 C66.4613,10.0875 67.2263,11.8225 66.6463,13.4065 L66.6393,13.4225 C66.0603,15.0065 64.3343,15.8475 62.6153,15.2175 C60.8943,14.5875 60.1293,12.8545 60.7093,11.2695" id="Fill-25" fill="#A7A7A7"></path>
                <path d="M68.1189,16.8474 C68.0499,16.6854 68.0609,16.4724 68.1689,16.2994 C68.3479,16.0114 68.7169,15.9304 69.0049,16.1094 C69.1489,16.1984 69.2199,16.3114 69.2609,16.4074 C69.4679,16.9244 69.7789,17.3564 70.2699,17.6594 C70.7239,17.9414 71.1099,17.9304 71.2929,17.6344 L71.3019,17.6194 C71.4759,17.3384 71.3919,17.0874 70.6819,16.3484 C69.8259,15.4594 69.3439,14.7724 69.9639,13.7694 L69.9729,13.7544 C70.5399,12.8384 71.6499,12.6884 72.6819,13.3264 C73.2949,13.7054 73.7309,14.1954 74.0069,14.7654 C74.0849,14.9124 74.1129,15.1404 73.9789,15.3564 C73.8019,15.6454 73.4319,15.7264 73.1429,15.5464 C73.0349,15.4804 72.9669,15.3984 72.9109,15.2934 C72.6779,14.8504 72.4069,14.5134 72.0599,14.2984 C71.6349,14.0344 71.2909,14.0914 71.1399,14.3364 L71.1309,14.3514 C70.9249,14.6834 71.0739,14.9254 71.8079,15.6894 C72.6679,16.5894 73.0169,17.3154 72.4729,18.1954 L72.4639,18.2094 C71.8439,19.2114 70.7299,19.3014 69.6409,18.6274 C68.9769,18.2174 68.4309,17.5994 68.1189,16.8474" id="Fill-27" fill="#A7A7A7"></path>
                <path d="M72.3816,19.5154 L75.3096,15.9284 C75.5396,15.6464 75.9446,15.6054 76.2286,15.8354 L78.7766,17.9164 C79.0266,18.1194 79.0636,18.4904 78.8596,18.7404 C78.6556,18.9894 78.2906,19.0204 78.0416,18.8164 L75.9926,17.1434 L75.2316,18.0764 L76.9846,19.5074 C77.2346,19.7114 77.2726,20.0814 77.0686,20.3304 C76.8636,20.5804 76.4996,20.6114 76.2496,20.4084 L74.4966,18.9764 L73.7076,19.9414 L75.7896,21.6414 C76.0396,21.8454 76.0766,22.2144 75.8736,22.4644 C75.6696,22.7144 75.3056,22.7444 75.0556,22.5404 L72.4746,20.4344 C72.1926,20.2024 72.1516,19.7974 72.3816,19.5154" id="Fill-29" fill="#A7A7A7"></path>
                <path d="M77.8738,21.0515 L77.8868,21.0395 C79.1328,19.9035 81.0398,19.9415 82.2518,21.2695 C82.8578,21.9335 83.1068,22.5085 83.1918,23.1545 C83.2088,23.3115 83.1748,23.5375 82.9868,23.7095 C82.7238,23.9495 82.3158,23.9315 82.0758,23.6675 C81.9508,23.5305 81.9208,23.3975 81.9078,23.2815 C81.8548,22.8475 81.7108,22.4635 81.3338,22.0495 C80.6928,21.3485 79.5638,21.3575 78.8188,22.0365 L78.8068,22.0485 C78.0058,22.7805 77.9198,23.8685 78.6288,24.6455 C78.9488,24.9955 79.3218,25.2295 79.7208,25.3135 L80.3468,24.7405 L79.7528,24.0905 C79.5408,23.8595 79.5508,23.5045 79.7828,23.2935 C80.0148,23.0815 80.3738,23.0985 80.5848,23.3295 L81.5918,24.4325 C81.8378,24.7015 81.8188,25.1095 81.5498,25.3555 L80.4848,26.3265 C80.2028,26.5835 79.9118,26.6545 79.5618,26.5485 C79.0178,26.3925 78.3238,26.0725 77.7238,25.4145 C76.4778,24.0495 76.5778,22.2355 77.8738,21.0515" id="Fill-31" fill="#A7A7A7"></path>
                <path d="M81.9421,26.2429 L84.2711,24.7069 C84.5761,24.5059 84.9751,24.5879 85.1761,24.8919 C85.3781,25.1959 85.2961,25.5959 84.9911,25.7969 L82.6901,27.3149 C81.8821,27.8469 81.7311,28.5259 82.1711,29.1919 C82.6091,29.8569 83.2791,29.9949 84.0651,29.4759 L86.4011,27.9349 C86.7061,27.7339 87.1051,27.8159 87.3061,28.1209 C87.5071,28.4249 87.4251,28.8239 87.1211,29.0249 L84.8271,30.5389 C83.3261,31.5289 82.0341,31.1729 81.1561,29.8409 C80.2771,28.5099 80.4831,27.2049 81.9421,26.2429" id="Fill-33" fill="#A7A7A7"></path>
                <path d="M86.8699,33.6961 C87.1369,34.2731 87.5979,34.4621 88.0519,34.2511 L88.0669,34.2441 C88.5749,34.0081 88.6739,33.5341 88.4059,32.9571 L87.8609,31.7791 L86.3139,32.4951 L86.8699,33.6961 Z M87.7899,30.3731 C88.1209,30.2201 88.5039,30.3601 88.6559,30.6921 L89.5209,32.5611 C89.8389,33.2471 89.8919,33.8671 89.7019,34.3841 C89.5409,34.8241 89.1919,35.1811 88.6839,35.4161 L88.6689,35.4241 C87.8219,35.8151 87.1029,35.6331 86.5309,35.1041 L85.9119,36.3901 C85.8189,36.5741 85.7309,36.7081 85.5469,36.7941 C85.2159,36.9471 84.8719,36.7691 84.7399,36.4841 C84.6159,36.2161 84.6649,35.9771 84.7769,35.7571 L85.7059,33.9251 L85.2669,32.9791 L84.0899,33.5241 C83.7599,33.6771 83.3769,33.5371 83.2239,33.2061 C83.0699,32.8751 83.2109,32.4921 83.5419,32.3401 L87.7899,30.3731 Z" id="Fill-35" fill="#A7A7A7"></path>
                <path d="M89.3972,41.28 L89.4142,41.276 C90.3922,40.998 91.0042,40.049 90.7182,39.038 C90.4312,38.026 89.4332,37.551 88.4542,37.829 L88.4382,37.833 C87.4592,38.111 86.8462,39.059 87.1332,40.071 C87.4202,41.083 88.4182,41.558 89.3972,41.28 M88.0482,36.524 L88.0652,36.519 C89.6892,36.059 91.3812,36.964 91.8812,38.725 C92.3802,40.487 91.4262,42.125 89.8022,42.585 L89.7862,42.59 C88.1632,43.05 86.4692,42.146 85.9702,40.384 C85.4702,38.622 86.4252,36.984 88.0482,36.524" id="Fill-37" fill="#A7A7A7"></path>
                <path d="M90.4197,48.0613 L90.4367,48.0603 C91.1307,48.0383 91.7097,48.5863 91.7317,49.2823 C91.7557,49.9773 91.2147,50.5633 90.5197,50.5863 L90.5027,50.5863 C89.8077,50.6103 89.2297,50.0603 89.2067,49.3663 C89.1837,48.6703 89.7247,48.0833 90.4197,48.0613" id="Fill-39" fill="#A7A7A7"></path>
                <path d="M10.2322,60.9089 C10.3842,61.5049 10.8302,61.7629 11.2942,61.6429 L11.3082,61.6389 C11.8422,61.5029 12.0342,61.0589 11.8812,60.4639 L11.6462,59.5429 L9.9922,59.9659 L10.2322,60.9089 Z M11.8222,58.2289 C12.1552,58.1439 12.4852,58.3399 12.5702,58.6729 L12.9822,60.2889 C13.3122,61.5809 12.7472,62.5579 11.6402,62.8409 L11.6252,62.8439 C10.3722,63.1639 9.4732,62.3559 9.1632,61.1409 L8.9322,60.2359 L7.8572,60.5119 C7.5242,60.5969 7.1942,60.3999 7.1092,60.0669 C7.0242,59.7349 7.2192,59.4049 7.5522,59.3199 L11.8222,58.2289 Z" id="Fill-41" fill="#A7A7A7"></path>
                <path d="M12.6443,67.7156 L12.6593,67.7086 C13.5443,67.3436 14.0133,66.3906 13.6353,65.4756 C13.2583,64.5616 12.2733,64.2256 11.3883,64.5906 L11.3733,64.5966 C10.4883,64.9616 10.0193,65.9156 10.3963,66.8296 C10.7743,67.7446 11.7593,68.0806 12.6443,67.7156 M10.8693,63.4146 L10.8823,63.4086 C12.3513,62.8026 14.0323,63.4636 14.6893,65.0576 C15.3473,66.6506 14.6313,68.2836 13.1653,68.8906 L13.1493,68.8966 C11.6813,69.5026 10.0013,68.8416 9.3433,67.2476 C8.6853,65.6546 9.4003,64.0216 10.8693,63.4146" id="Fill-43" fill="#A7A7A7"></path>
                <path d="M14.8874,71.6765 C15.1934,72.1915 15.6424,72.3225 16.0474,72.0825 L16.0614,72.0745 C16.5144,71.8055 16.5604,71.3515 16.2544,70.8365 L15.6304,69.7865 L14.2514,70.6065 L14.8874,71.6765 Z M15.4284,68.4775 C15.7234,68.3025 16.0954,68.3965 16.2704,68.6925 L17.2604,70.3595 C17.6234,70.9695 17.7334,71.5455 17.6054,72.0485 C17.4964,72.4755 17.2044,72.8435 16.7514,73.1135 L16.7384,73.1205 C15.9844,73.5695 15.2924,73.4685 14.7064,73.0285 L14.2504,74.2925 C14.1814,74.4725 14.1124,74.6065 13.9474,74.7045 C13.6524,74.8795 13.3134,74.7465 13.1624,74.4925 C13.0204,74.2525 13.0424,74.0265 13.1274,73.8085 L13.8194,72.0045 L13.3184,71.1605 L12.2684,71.7835 C11.9734,71.9595 11.6014,71.8645 11.4264,71.5705 C11.2504,71.2755 11.3454,70.9035 11.6404,70.7275 L15.4284,68.4775 Z" id="Fill-45" fill="#A7A7A7"></path>
                <path d="M17.5525,76.7371 C17.8005,76.5361 18.1655,76.5681 18.3675,76.8161 C18.4735,76.9461 18.5005,77.0681 18.4945,77.2381 L18.4545,78.0621 C18.6895,77.9961 18.9285,77.8731 19.1455,77.6961 L19.1575,77.6861 C19.9015,77.0821 20.0765,76.0331 19.4515,75.2651 C18.8275,74.4971 17.7875,74.4581 17.0445,75.0621 L17.0315,75.0721 C16.2885,75.6761 16.1135,76.7251 16.7375,77.4941 C16.9075,77.7041 17.1025,77.8661 17.3185,77.9671 L17.3345,77.2041 C17.3405,77.0341 17.3985,76.8641 17.5525,76.7371 M16.2085,74.0851 L16.2215,74.0751 C17.4535,73.0731 19.2535,73.2241 20.3415,74.5621 C21.4295,75.9001 21.2135,77.6711 19.9815,78.6741 L19.9685,78.6831 C19.5105,79.0551 18.9675,79.2611 18.4105,79.3121 L18.4075,79.6231 C18.4015,79.7931 18.3445,79.9641 18.1895,80.0891 C17.9425,80.2911 17.5755,80.2581 17.3745,80.0101 C17.2695,79.8811 17.2345,79.7231 17.2475,79.5901 L17.2675,79.1821 C16.7345,79.0081 16.2405,78.6791 15.8475,78.1961 C14.7595,76.8591 14.9765,75.0881 16.2085,74.0851" id="Fill-47" fill="#A7A7A7"></path>
                <path d="M20.2253,79.4773 L21.9893,77.5323 C22.2203,77.2793 22.6033,77.2593 22.8573,77.4903 C23.1123,77.7213 23.1303,78.1043 22.8993,78.3583 L21.1573,80.2793 C20.5453,80.9533 20.5663,81.6083 21.1213,82.1123 C21.6773,82.6153 22.3203,82.5843 22.9143,81.9283 L24.6843,79.9783 C24.9143,79.7233 25.2983,79.7053 25.5523,79.9353 C25.8063,80.1653 25.8263,80.5493 25.5953,80.8033 L23.8573,82.7183 C22.7203,83.9713 21.4593,83.9483 20.3483,82.9403 C19.2373,81.9323 19.1203,80.6953 20.2253,79.4773" id="Fill-49" fill="#A7A7A7"></path>
                <path d="M23.6169,84.8084 L26.0929,81.2214 C26.2879,80.9394 26.6659,80.8704 26.9479,81.0654 L29.4969,82.8254 C29.7459,82.9964 29.8089,83.3414 29.6379,83.5904 C29.4649,83.8404 29.1249,83.8964 28.8759,83.7244 L26.8259,82.3094 L26.1809,83.2424 L27.9359,84.4534 C28.1849,84.6254 28.2489,84.9694 28.0759,85.2194 C27.9039,85.4684 27.5639,85.5254 27.3139,85.3534 L25.5599,84.1424 L24.8939,85.1084 L26.9759,86.5444 C27.2249,86.7174 27.2889,87.0624 27.1159,87.3114 C26.9439,87.5614 26.6039,87.6184 26.3549,87.4454 L23.7729,85.6624 C23.4909,85.4674 23.4219,85.0904 23.6169,84.8084" id="Fill-51" fill="#A7A7A7"></path>
                <path d="M30.571,86.7293 L30.578,86.7143 C31.232,85.2673 32.858,84.5753 34.422,85.2813 C35.185,85.6263 35.61,86.0633 35.89,86.5663 C35.967,86.7073 35.997,86.9133 35.908,87.1093 C35.77,87.4153 35.415,87.5423 35.109,87.4043 C34.956,87.3353 34.881,87.2313 34.824,87.1443 C34.616,86.7703 34.347,86.4923 33.948,86.3113 C33.09,85.9223 32.149,86.3563 31.756,87.2293 L31.749,87.2443 C31.354,88.1163 31.63,89.1163 32.503,89.5103 C32.975,89.7243 33.353,89.7203 33.788,89.6103 C33.908,89.5773 34.048,89.5793 34.178,89.6373 C34.463,89.7653 34.597,90.1063 34.469,90.3903 C34.39,90.5653 34.241,90.6643 34.099,90.7053 C33.461,90.8983 32.814,90.8943 32,90.5273 C30.501,89.8503 29.911,88.1913 30.571,86.7293" id="Fill-53" fill="#A7A7A7"></path>
                <path d="M39.9988,90.2625 L40.0028,90.2475 C40.2698,89.3265 39.8148,88.3655 38.8638,88.0895 C37.9128,87.8155 37.0358,88.3755 36.7698,89.2965 L36.7658,89.3125 C36.4998,90.2335 36.9528,91.1955 37.9038,91.4695 C38.8548,91.7445 39.7318,91.1835 39.9988,90.2625 M35.5258,88.9705 L35.5298,88.9555 C35.9718,87.4295 37.5368,86.5265 39.1938,87.0055 C40.8518,87.4845 41.6838,89.0625 41.2418,90.5895 L41.2378,90.6045 C40.7968,92.1305 39.2308,93.0335 37.5738,92.5545 C35.9168,92.0755 35.0848,90.4975 35.5258,88.9705" id="Fill-55" fill="#A7A7A7"></path>
                <path d="M42.3054,88.5359 C42.3494,88.1949 42.6534,87.9619 42.9934,88.0049 L43.1204,88.0209 C43.4134,88.0589 43.5694,88.2239 43.7074,88.4599 L45.6604,91.8509 L46.0304,88.9929 C46.0734,88.6599 46.3764,88.4259 46.7094,88.4699 C47.0424,88.5119 47.2764,88.8149 47.2334,89.1479 L46.6634,93.5579 C46.6194,93.8999 46.3164,94.1339 45.9754,94.0909 L45.9364,94.0849 C45.6424,94.0469 45.4874,93.8819 45.3484,93.6459 L43.3234,90.1329 L42.9394,93.1019 C42.8964,93.4339 42.5924,93.6689 42.2594,93.6259 C41.9274,93.5839 41.6934,93.2789 41.7364,92.9469 L42.3054,88.5359 Z" id="Fill-57" fill="#A7A7A7"></path>
                <path d="M47.8767,93.5945 C47.7407,93.4995 47.6447,93.3235 47.6436971,93.1325 C47.6427,92.8135 47.8967,92.5655 48.2157,92.5645 C48.3757,92.5635 48.4877,92.6185 48.5667,92.6735 C48.9917,92.9835 49.4557,93.1735 49.9987,93.1705 C50.5017,93.1685 50.8047,92.9675 50.8037,92.6405 L50.8037,92.6245 C50.8017,92.3135 50.6087,92.1545 49.6747,91.9185 C48.5477,91.6365 47.8187,91.3275 47.8147,90.2175 L47.8147,90.2015 C47.8107,89.1885 48.6217,88.5135 49.7637,88.5094616 C50.4417,88.5065 51.0337,88.6795 51.5377,88.9965 C51.6747,89.0755 51.8107,89.2425 51.8117,89.4835 C51.8137,89.8015 51.5587,90.0505 51.2387,90.0515 C51.1197,90.0525 51.0237,90.0215 50.9277,89.9655 C50.5197,89.7275 50.1357,89.5935 49.7527,89.5945 C49.2807,89.5975 49.0347,89.8135 49.0357,90.0845 L49.0357,90.1015 C49.0377,90.4685 49.2767,90.5865 50.2447,90.8305 C51.3797,91.1205 52.0207,91.5255 52.0237221,92.4995 L52.0237221,92.5155 C52.0287,93.6255 51.1857,94.2515 49.9797,94.2565303 C49.2447,94.2595 48.5017,94.0395 47.8767,93.5945" id="Fill-59" fill="#A7A7A7"></path>
                <path d="M52.7429,91.7439 L52.3909,89.1409 C52.3459,88.8019 52.5779,88.4959 52.9179,88.4499 C53.2589,88.4039 53.5629,88.6369 53.6089,88.9759 L53.9569,91.5469 C54.0789,92.4489 54.5929,92.8539 55.3359,92.7549 C56.0789,92.6539 56.4699,92.1419 56.3499,91.2649 L55.9979,88.6539 C55.9519,88.3139 56.1839,88.0089 56.5249,87.9629 C56.8649,87.9169 57.1699,88.1489 57.2159,88.4899 L57.5619,91.0529 C57.7889,92.7279 56.9589,93.6789 55.4719,93.8799 C53.9849,94.0799 52.9629,93.3729 52.7429,91.7439" id="Fill-61" fill="#A7A7A7"></path>
                <path d="M57.8357,88.4021 C57.7387,88.0721 57.9227,87.7361 58.2507,87.6381 L58.3817,87.5991 C58.6347,87.5261 58.8487,87.6031 59.0077,87.7491 L61.1157,89.6481 L61.8607,86.8981 C61.9247,86.6631 62.0647,86.5141 62.3017,86.4441 L62.4317,86.4061 C62.7607,86.3081 63.0977,86.4921 63.1947,86.8211 L64.4497,91.0781 C64.5477,91.4071 64.3627,91.7441 64.0347,91.8411 C63.7127,91.9361 63.3737,91.7451 63.2787,91.4231 L62.4907,88.7521 L61.9277,90.6481 C61.8577,90.8691 61.7387,91.0281 61.5247,91.0911 C61.3107,91.1551 61.1237,91.0861 60.9467,90.9371 L59.4657,89.6691 L60.2517,92.3331 C60.3467,92.6541 60.1607,92.9841 59.8387,93.0791 C59.5177,93.1731 59.1897,92.9951 59.0957,92.6731 L57.8357,88.4021 Z" id="Fill-63" fill="#A7A7A7"></path>
                <path d="M68.8074,86.6629 L68.8004,86.6479 C68.3914,85.7829 67.4144,85.3619 66.5204,85.7859 C65.6254,86.2089 65.3404,87.2089 65.7504,88.0749 L65.7564,88.0899 C66.1664,88.9549 67.1424,89.3759 68.0364,88.9519 C68.9314,88.5279 69.2164,87.5279 68.8074,86.6629 M64.6024,88.6529 L64.5954,88.6389 C63.9164,87.2039 64.4924,85.4919 66.0494,84.7549 C67.6084,84.0169 69.2764,84.6489 69.9544,86.0839 L69.9614,86.0989 C70.6414,87.5339 70.0654,89.2459 68.5074,89.9829 C66.9504,90.7209 65.2824,90.0889 64.6024,88.6529" id="Fill-65" fill="#A7A7A7"></path>
                <path d="M71.0163,82.8035 C70.8123,82.5275 70.8693,82.1475 71.1453,81.9435 L73.6633,80.0855 C73.9143,79.9015 74.2613,79.9535 74.4463,80.2035 C74.6303,80.4545 74.5793,80.8005 74.3283,80.9855 L72.3033,82.4785 L73.0093,83.4355 L74.7453,82.1565 C74.9953,81.9715 75.3413,82.0235 75.5263,82.2745 C75.7113,82.5255 75.6593,82.8705 75.4083,83.0555 L73.6733,84.3355 L74.6203,85.6205 C74.8253,85.8975 74.7683,86.2765 74.4923,86.4795 C74.2153,86.6835 73.8353,86.6265 73.6313,86.3505 L71.0163,82.8035 Z" id="Fill-67" fill="#A7A7A7"></path>
                <path d="M79.4226,78.5369 L79.4106,78.5249 C78.7396,77.8429 77.6796,77.7659 76.9736,78.4589 C76.2676,79.1529 76.3256,80.1919 76.9976,80.8759 L77.0086,80.8869 C77.6806,81.5699 78.7406,81.6469 79.4466,80.9539 C80.1526,80.2589 80.0936,79.2209 79.4226,78.5369 M76.1036,81.7989 L76.0926,81.7879 C74.9786,80.6549 74.9596,78.8489 76.1906,77.6399 C77.4196,76.4309 79.2036,76.4799 80.3176,77.6129 L80.3276,77.6249 C81.4416,78.7579 81.4596,80.5639 80.2306,81.7729 C79.0006,82.9809 77.2166,82.9329 76.1036,81.7989" id="Fill-69" fill="#A7A7A7"></path>
                <path d="M82.2361,74.9705 C82.5961,74.4925 82.5481,74.0275 82.1731,73.7425 L82.1601,73.7335 C81.7401,73.4155 81.3011,73.5455 80.9411,74.0235 L80.2061,74.9975 L81.4861,75.9645 L82.2361,74.9705 Z M79.0701,75.6815 C78.7961,75.4745 78.7431,75.0935 78.9501,74.8205 L80.1181,73.2725 C80.5471,72.7045 81.0371,72.3855 81.5511,72.3145 C81.9881,72.2525 82.4391,72.3835 82.8591,72.7005 L82.8721,72.7105 C83.5731,73.2395 83.7411,73.9175 83.5551,74.6265 L84.8981,74.5715 C85.0911,74.5665 85.2421,74.5795 85.3941,74.6955 C85.6691,74.9015 85.6741,75.2665 85.4961,75.5015 C85.3281,75.7245 85.1081,75.7885 84.8761,75.7935 L82.9441,75.8355 L82.3521,76.6185 L83.3271,77.3545 C83.6011,77.5615 83.6541,77.9415 83.4481,78.2155 C83.2401,78.4895 82.8601,78.5415 82.5871,78.3355 L79.0701,75.6815 Z" id="Fill-71" fill="#A7A7A7"></path>
                <path d="M82.1404,71.5427 C81.8384,71.3787 81.7294,71.0107 81.8934,70.7097 L81.9584,70.5897 C82.0844,70.3587 82.2904,70.2627 82.5054,70.2517 L85.3394,70.1037 L83.9204,67.6327 C83.8004,67.4217 83.7924,67.2177 83.9114,66.9997 L83.9754,66.8807 C84.1404,66.5797 84.5074,66.4707 84.8094,66.6347 L88.7084,68.7547 C89.0094,68.9187 89.1194,69.2867 88.9544,69.5887 C88.7934,69.8837 88.4184,69.9877 88.1244,69.8277 L85.6774,68.4967 L86.6204,70.2357 C86.7284,70.4397 86.7574,70.6387 86.6504,70.8337 C86.5434,71.0297 86.3624,71.1127 86.1324,71.1347 L84.1884,71.2847 L86.6284,72.6117 C86.9224,72.7717 87.0244,73.1367 86.8654,73.4317 C86.7034,73.7257 86.3474,73.8317 86.0524,73.6707 L82.1404,71.5427 Z" id="Fill-73" fill="#A7A7A7"></path>
                <path d="M88.6472,63.9168 L86.6502,64.0198 L88.1222,65.3738 L88.6472,63.9168 Z M88.9302,67.6928 L85.4552,64.3688 C85.2152,64.1388 85.1262,63.8438 85.2402,63.5278 L85.2642,63.4608 C85.3782,63.1458 85.6322,62.9818 85.9632,62.9578 L90.7612,62.6178 C90.8582,62.6098 90.9412,62.6148 91.0162,62.6418 C91.3242,62.7528 91.4852,63.0828 91.3752,63.3908 C91.2772,63.6608 91.0532,63.7838 90.7762,63.8018 L89.8222,63.8568 L88.9882,66.1698 L89.7192,66.8498 C89.9092,67.0278 89.9732,67.2718 89.8872,67.5128 C89.7792,67.8128 89.4552,67.9588 89.1542,67.8508 C89.0712,67.8208 89.0002,67.7608 88.9302,67.6928 L88.9302,67.6928 Z" id="Fill-75" fill="#A7A7A7"></path>
                <path d="M86.8474,60.7517 C86.5124,60.6777 86.3064,60.3537 86.3804,60.0187 C86.4554,59.6837 86.7804,59.4777 87.1154,59.5517 L90.9234,60.3987 L91.4174,58.1797 C91.4864,57.8757 91.7814,57.6877 92.0844,57.7557 C92.3884,57.8227 92.5764,58.1177 92.5084,58.4217 L91.8814,61.2417 C91.8064,61.5767 91.4834,61.7827 91.1484,61.7087 L86.8474,60.7517 Z" id="Fill-77" fill="#A7A7A7"></path>
                <g id="Group-81" transform="translate(0.000000, 0.331800)">
                    <mask id="mask-2" fill="white">
                        <use xlink:href="#path-1"></use>
                    </mask>
                    <g id="Clip-80"></g>
                    <path d="M49.6658,2.0918 C23.0648,2.0918 1.4238,23.7338 1.4238,50.3338 C1.4238,76.9348 23.0648,98.5758 49.6658,98.5758 C76.2668,98.5758 97.9078,76.9348 97.9078,50.3338 C97.9078,23.7338 76.2668,2.0918 49.6658,2.0918 M49.6658,99.9998 C22.2798,99.9998 -0.0002,77.7198 -0.0002,50.3338 C-0.0002,22.9478 22.2798,0.6678 49.6658,0.6678 C77.0518,0.6678 99.3318,22.9478 99.3318,50.3338 C99.3318,77.7198 77.0518,99.9998 49.6658,99.9998" id="Fill-79" fill="#A7A7A7" mask="url(#mask-2)"></path>
                </g>
                <path d="M49.6658,50.9119 C48.3858,50.9119 47.3488,51.9499 47.3488,53.2299 C47.3488,54.0999 47.8288,54.8579 48.5388,55.2549 L48.1538,58.8419 L49.6658,58.8419 L51.1778,58.8419 L50.7928,55.2549 C51.5028,54.8579 51.9838,54.0999 51.9838,53.2299 C51.9838,51.9499 50.9458,50.9119 49.6658,50.9119" id="Fill-82" fill="#A7A7A7"></path>
                <path d="M65.4958,67.655 C65.4958,70.258 63.3868,72.367 60.7838,72.367 L58.5728,72.367 L58.1318,74.153 C58.0528,74.47 57.8498,74.682 57.6218,74.682 L56.0528,74.682 C55.8248,74.682 55.6208,74.47 55.5428,74.153 L55.0998,72.367 L44.2308,72.367 L43.7898,74.153 C43.7108,74.47 43.5078,74.682 43.2798,74.682 L41.7108,74.682 C41.4828,74.682 41.2798,74.47 41.2008,74.153 L40.7598,72.367 L38.5478,72.367 C35.9448,72.367 33.8358,70.258 33.8358,67.655 L33.0378,43.478 C33.0378,40.876 35.1468,38.765 37.7498,38.765 L40.7598,38.765 L40.7598,32.472 C40.7598,29.257 43.3658,26.65 46.5818,26.65 L52.7498,26.65 C55.9658,26.65 58.5728,29.257 58.5728,32.472 L58.5728,34.468 C58.5728,35.427 57.7958,36.205 56.8368,36.205 C55.8778,36.205 55.0998,35.427 55.0998,34.468 L55.0998,32.472 C55.0998,31.175 54.0488,30.122 52.7498,30.122 L46.5818,30.122 C45.2838,30.122 44.2308,31.175 44.2308,32.472 L44.2308,38.765 L55.0998,38.765 L55.0998,72.367 L58.5728,72.367 L58.5728,38.765 L61.5818,38.765 C64.1838,38.765 66.2948,40.876 66.2948,43.478 L65.4958,67.655 Z M49.6658,17.171 C31.1668,17.171 16.1708,32.167 16.1708,50.666 C16.1708,69.165 31.1668,84.161 49.6658,84.161 C68.1648,84.161 83.1608,69.165 83.1608,50.666 C83.1608,32.167 68.1648,17.171 49.6658,17.171 L49.6658,17.171 Z" id="Fill-84" fill="#A7A7A7"></path>
                <mask id="mask-4" fill="white">
                    <use xlink:href="#path-3"></use>
                </mask>
                <g id="Clip-87"></g>
                <polygon id="Fill-86" fill="#A7A7A7" mask="url(#mask-4)" points="40.76 72.3668 44.232 72.3668 44.232 38.7648 40.76 38.7648"></polygon>
            </g>
        </g>
    </g>
</svg>